<svg xmlns="http://www.w3.org/2000/svg" width="18.413" height="16.464" viewBox="0 0 18.413 16.464">
  <g id="like-1" transform="translate(0.207 0.2)">
    <path id="Tracé_531" data-name="Tracé 531" d="M17.97,6.6A4.993,4.993,0,0,0,13.1,1.826,4.888,4.888,0,0,0,8.951,4.112,4.706,4.706,0,0,0,4.9,1.826,4.992,4.992,0,0,0,.03,6.6,4.709,4.709,0,0,0,.183,8.41a7.719,7.719,0,0,0,2.492,3.976l6.271,5.441,6.379-5.44A7.72,7.72,0,0,0,17.817,8.41,4.72,4.72,0,0,0,17.97,6.6Zm-.827,1.661a7.06,7.06,0,0,1-2.281,3.636L8.951,16.936l-5.81-5.041A7.065,7.065,0,0,1,.857,8.258,4.115,4.115,0,0,1,.713,6.7l.005-.033A4.329,4.329,0,0,1,4.9,2.488,4.057,4.057,0,0,1,8.63,4.975l.319.722.319-.722A4.186,4.186,0,0,1,13.1,2.488,4.342,4.342,0,0,1,17.287,6.7,4.11,4.11,0,0,1,17.143,8.258Z" transform="translate(0 -1.826)" fill="#3c3c3c" stroke="#3c3c3c" stroke-width="0.4"/>
  </g>
</svg>
