<svg xmlns="http://www.w3.org/2000/svg" width="32.722" height="28.746" viewBox="0 0 32.722 28.746">
  <g id="repeat" transform="translate(0.361 0.373)">
    <path id="Tracé_843" data-name="Tracé 843" d="M1.323,15.325a.6.6,0,0,0,.623-.57c0-3.457,3.076-6.27,6.856-6.27H23.762v5.109L32.3,7.915,23.762,2.236V7.345H8.8c-4.468,0-8.1,3.324-8.1,7.41A.6.6,0,0,0,1.323,15.325ZM25.008,4.475l5.173,3.441-5.173,3.441Z" transform="translate(-0.301 -2.236)" fill="#3c3c3c" stroke="#3c3c3c" stroke-width="0.4"/>
    <path id="Tracé_844" data-name="Tracé 844" d="M30.978,26.2a.6.6,0,0,0-.623.57c0,3.457-3.076,6.27-6.856,6.27H8.539V27.931L0,33.61l8.539,5.679V34.18H23.5c4.468,0,8.1-3.324,8.1-7.41A.6.6,0,0,0,30.978,26.2ZM7.293,37.051,2.119,33.61l5.173-3.441v6.881Z" transform="translate(0 -11.289)" fill="#3c3c3c" stroke="#3c3c3c" stroke-width="0.4"/>
  </g>
</svg>
