<svg xmlns="http://www.w3.org/2000/svg" width="16.4" height="18.4" viewBox="0 0 16.4 18.4">
  <g id="_13520" data-name="13520" transform="translate(0.2 -0.428)">
    <path id="Tracé_1325" data-name="Tracé 1325" d="M14.878,4.722H11.459V.933A.286.286,0,0,0,11.2.628H4.8A.286.286,0,0,0,4.54.933V4.722H1.122A.283.283,0,0,0,.861,5L0,18.3a.335.335,0,0,0,.069.229.246.246,0,0,0,.193.1H15.738a.245.245,0,0,0,.192-.1A.336.336,0,0,0,16,18.3L15.14,5A.283.283,0,0,0,14.878,4.722ZM11.2,6.655a.282.282,0,1,1-.24.278A.262.262,0,0,1,11.2,6.655ZM5.065,1.239h5.87V4.722H5.065V1.239ZM4.8,6.655a.282.282,0,1,1-.24.278A.262.262,0,0,1,4.8,6.655ZM.545,18.018l.82-12.686H4.54V6.1a.89.89,0,0,0-.5.831.835.835,0,0,0,.765.889.835.835,0,0,0,.765-.889.89.89,0,0,0-.5-.831v-.77h5.87V6.1a.89.89,0,0,0-.5.831.835.835,0,0,0,.765.889.835.835,0,0,0,.765-.889.89.89,0,0,0-.5-.831v-.77h3.176l.82,12.686Z" transform="translate(0 0)" fill="#ffffff" stroke="#ffffff" stroke-width="0.4"/>
  </g>
</svg>
