<svg xmlns="http://www.w3.org/2000/svg" width="14.4" height="18.4" viewBox="0 0 14.4 18.4">
  <path id="user" d="M8.517,12.867l2.907-1.433a.788.788,0,0,0,.445-.71V9.71c-.07-.084-.143-.18-.219-.285a6.83,6.83,0,0,1-.9-1.74A1.19,1.19,0,0,1,10.043,6.6V5.4a1.187,1.187,0,0,1,.3-.787v-1.6a2.662,2.662,0,0,1,.637-1.957A3.862,3.862,0,0,1,14,0a3.863,3.863,0,0,1,3.015,1.059,2.663,2.663,0,0,1,.637,1.958v1.6a1.187,1.187,0,0,1,.3.787V6.6a1.187,1.187,0,0,1-.456.933A6.262,6.262,0,0,1,16.435,9.7V10.7a.791.791,0,0,0,.419.7l2.715,1.46A2.7,2.7,0,0,1,21,15.229V16.2c0,1.424-4.579,1.8-7,1.8s-7-.376-7-1.8v-.913A2.688,2.688,0,0,1,8.517,12.867ZM7.609,16.2c0,.407,2.256,1.2,6.391,1.2s6.391-.793,6.391-1.2v-.971a2.1,2.1,0,0,0-1.114-1.849l-2.715-1.46a1.39,1.39,0,0,1-.737-1.223V9.491l.071-.083a5.635,5.635,0,0,0,1.038-2.12l.028-.119.1-.066a.6.6,0,0,0,.282-.5V5.4a.588.588,0,0,0-.2-.443l-.1-.089V3l0-.039a2.061,2.061,0,0,0-.488-1.506A3.3,3.3,0,0,0,14,.6a3.305,3.305,0,0,0-2.552.848,2.09,2.09,0,0,0-.494,1.512l0,1.908-.1.089a.587.587,0,0,0-.2.442V6.6a.6.6,0,0,0,.433.57l.152.046.049.148a6.245,6.245,0,0,0,.863,1.714A3.954,3.954,0,0,0,12.4,9.4l.076.085v1.238A1.384,1.384,0,0,1,11.7,11.97L8.79,13.4a2.092,2.092,0,0,0-1.181,1.884Z" transform="translate(-6.8 0.2)" fill="#3c3c3c" stroke="#3c3c3c" stroke-width="0.4"/>
</svg>
